<mxfile host="app.diagrams.net" modified="2020-05-01T16:56:46.202Z" agent="5.0 (Macintosh)" etag="3ZmA2HtycN3J_vS37k12" version="13.0.5" type="github">
  <diagram id="PnIPNxmi-myWtIkF8uo7" name="Page-1">
    <mxGraphModel dx="946" dy="663" grid="1" gridSize="10" guides="1" tooltips="1" connect="1" arrows="1" fold="1" page="1" pageScale="1" pageWidth="850" pageHeight="1100" math="0" shadow="0">
      <root>
        <mxCell id="0" />
        <mxCell id="1" parent="0" />
        <mxCell id="vag1YEVrgGTwpeZXCh5J-1" value="" style="whiteSpace=wrap;html=1;aspect=fixed;" vertex="1" parent="1">
          <mxGeometry x="380" y="310" width="80" height="80" as="geometry" />
        </mxCell>
      </root>
    </mxGraphModel>
  </diagram>
</mxfile>
